<svg width="686" height="211" viewBox="0 0 686 211" fill="none" xmlns="http://www.w3.org/2000/svg">
<path d="M64.416 72C63.2 68.352 61.568 63.776 59.52 58.272H28.896L24.096 72H0L26.88 2.304H62.208L89.28 72H64.416ZM54.048 43.296C51.616 36.576 49.12 29.856 46.56 23.136L44.256 16.896C42.016 22.72 38.72 31.52 34.368 43.296H54.048ZM131.861 72.96C117.397 72.96 106.741 69.888 99.8932 63.744C93.0453 57.6 89.6213 48.832 89.6213 37.44C89.6213 25.984 93.0453 16.928 99.8932 10.272C106.741 3.616 117.397 0.287996 131.861 0.287996C152.085 0.287996 165.621 7.232 172.469 21.12C166.709 23.104 159.957 26.08 152.213 30.048C150.357 26.464 147.413 23.808 143.381 22.08C139.413 20.352 135.349 19.488 131.189 19.488C125.045 19.488 120.469 21.12 117.461 24.384C114.453 27.584 112.949 31.552 112.949 36.288C112.949 41.408 114.549 45.6 117.749 48.864C121.013 52.064 125.973 53.664 132.629 53.664C137.941 53.664 142.165 52.8 145.301 51.072C148.437 49.28 150.741 46.464 152.213 42.624C157.461 45.44 164.181 48.608 172.373 52.128C169.173 59.872 163.829 65.28 156.341 68.352C148.853 71.424 140.693 72.96 131.861 72.96ZM260.632 2.304C260.184 13.12 259.96 24.736 259.96 37.152C259.96 49.568 260.184 61.184 260.632 72H238.072V45.888H202.744V72H180.184C180.696 59.584 180.952 47.968 180.952 37.152C180.952 26.336 180.696 14.72 180.184 2.304H202.744V28.416H238.072V2.304H260.632ZM328.885 72C327.669 68.352 326.037 63.776 323.989 58.272H293.365L288.565 72H264.469L291.349 2.304H326.677L353.749 72H328.885ZM318.517 43.296C316.085 36.576 313.589 29.856 311.029 23.136L308.725 16.896C306.485 22.72 303.189 31.52 298.837 43.296H318.517ZM380.42 52.608C398.98 52.48 414.34 52.16 426.5 51.648C425.668 54.912 425.156 58.048 424.964 61.056C424.772 64.064 424.676 67.712 424.676 72H356.996C357.508 59.584 357.764 47.968 357.764 37.152C357.764 26.336 357.508 14.72 356.996 2.304H380.42V52.608ZM47.424 141.4C60.16 141.4 69.024 143.672 74.016 148.216C79.008 152.696 81.504 159.032 81.504 167.224C81.504 172.856 80.512 177.656 78.528 181.624C76.544 185.528 73.056 188.6 68.064 190.84C63.072 193.016 56.192 194.104 47.424 194.104H27.456V211H3.84C4.352 198.584 4.608 186.968 4.608 176.152C4.608 165.336 4.352 153.72 3.84 141.304H27.456V141.4H47.424ZM40.704 175.576C46.016 175.576 49.984 175.384 52.608 175C55.296 174.552 57.152 173.784 58.176 172.696C59.264 171.608 59.808 170.008 59.808 167.896C59.808 165.784 59.296 164.216 58.272 163.192C57.312 162.104 55.488 161.368 52.8 160.984C50.176 160.6 46.144 160.408 40.704 160.408H27.456V175.576H40.704ZM111.809 193.432C136.129 193.304 153.761 192.952 164.705 192.376C164.257 195 163.969 197.72 163.841 200.536C163.777 203.288 163.745 206.776 163.745 211H89.1525C89.6645 198.584 89.9205 186.968 89.9205 176.152C89.9205 165.336 89.6645 153.72 89.1525 141.304H163.745V158.68H111.809V167.896C114.881 167.96 119.425 167.992 125.441 167.992C135.617 167.992 146.145 167.8 157.025 167.416V183.928C146.145 183.544 135.617 183.352 125.441 183.352C119.425 183.352 114.881 183.384 111.809 183.448V193.432ZM203.123 140.248C215.155 140.248 224.659 141.72 231.635 144.664C238.611 147.544 243.475 151.576 246.227 156.76C249.043 161.88 250.451 168.184 250.451 175.672C250.451 182.776 248.851 188.984 245.651 194.296C242.451 199.608 237.651 203.736 231.251 206.68C224.851 209.56 216.979 211 207.635 211C201.939 211 196.147 211 190.259 211C184.371 211 178.419 210.968 172.403 210.904C172.915 198.296 173.171 186.552 173.171 175.672C173.171 164.664 172.915 153.176 172.403 141.208C180.019 140.568 190.259 140.248 203.123 140.248ZM210.323 191.896C216.275 191.896 220.243 190.456 222.227 187.576C224.211 184.696 225.203 180.728 225.203 175.672C225.203 170.808 224.147 166.872 222.035 163.864C219.987 160.856 216.083 159.352 210.323 159.352C204.115 159.352 199.475 159.544 196.403 159.928V191.896H210.323ZM338.634 141.4C338.186 152.216 337.962 163.8 337.962 176.152C337.962 188.568 338.186 200.184 338.634 211H304.266L281.034 158.584L282.762 211H258.09C258.602 198.584 258.858 186.968 258.858 176.152C258.858 165.4 258.602 153.816 258.09 141.4H293.418L316.746 195.256L315.114 141.4H338.634ZM368.965 193.432C393.285 193.304 410.917 192.952 421.861 192.376C421.413 195 421.125 197.72 420.997 200.536C420.933 203.288 420.901 206.776 420.901 211H346.309C346.821 198.584 347.077 186.968 347.077 176.152C347.077 165.336 346.821 153.72 346.309 141.304H420.901V158.68H368.965V167.896C372.037 167.96 376.581 167.992 382.597 167.992C392.773 167.992 403.301 167.8 414.181 167.416V183.928C403.301 183.544 392.773 183.352 382.597 183.352C376.581 183.352 372.037 183.384 368.965 183.448V193.432ZM479.671 211C476.663 205.56 471.671 197.24 464.695 186.04L453.463 197.176V211H429.559C430.071 198.584 430.327 186.968 430.327 176.152C430.327 165.336 430.071 153.72 429.559 141.304H453.463V169.432C465.239 157.784 473.623 148.408 478.615 141.304H509.719L479.479 171.256C483.959 177.528 488.983 184.344 494.551 191.704C500.183 199.064 505.271 205.496 509.815 211H479.671ZM578.072 211C576.856 207.352 575.224 202.776 573.176 197.272H542.552L537.752 211H513.656L540.536 141.304H575.864L602.936 211H578.072ZM567.704 182.296C565.272 175.576 562.776 168.856 560.216 162.136L557.912 155.896C555.672 161.72 552.376 170.52 548.024 182.296H567.704ZM685.147 164.536C685.147 170.104 683.771 174.808 681.019 178.648C678.331 182.488 673.691 185.272 667.099 187C667.867 188.024 668.411 188.824 668.731 189.4L684.283 211H658.171C655.355 205.752 650.907 198.328 644.827 188.728H630.715V211H608.059C608.571 198.584 608.827 186.968 608.827 176.152C608.827 165.336 608.571 153.72 608.059 141.304H630.715V141.4H650.395C663.323 141.4 672.347 143.48 677.467 147.64C682.587 151.8 685.147 157.432 685.147 164.536ZM630.715 159.832V170.776H643.675C649.115 170.776 653.211 170.616 655.963 170.296C658.779 169.912 660.731 169.336 661.819 168.568C662.907 167.8 663.451 166.68 663.451 165.208C663.451 163.8 662.939 162.712 661.915 161.944C660.891 161.176 658.971 160.632 656.155 160.312C653.339 159.992 649.179 159.832 643.675 159.832H630.715Z" fill="#D9CD94"/>
</svg>
