<svg width="674" height="44" viewBox="0 0 674 44" fill="none" xmlns="http://www.w3.org/2000/svg">
<path d="M38.247 43C37.525 40.834 36.556 38.117 35.34 34.849H17.157L14.307 43H0L15.96 1.618H36.936L53.01 43H38.247ZM32.091 25.957C30.647 21.967 29.165 17.977 27.645 13.987L26.277 10.282C24.947 13.74 22.99 18.965 20.406 25.957H32.091ZM78.2926 43.57C69.7046 43.57 63.3776 41.746 59.3116 38.098C55.2456 34.45 53.2126 29.244 53.2126 22.48C53.2126 15.678 55.2456 10.301 59.3116 6.349C63.3776 2.397 69.7046 0.420998 78.2926 0.420998C90.3006 0.420998 98.3376 4.544 102.404 12.79C98.9836 13.968 94.9746 15.735 90.3766 18.091C89.2746 15.963 87.5266 14.386 85.1326 13.36C82.7766 12.334 80.3636 11.821 77.8936 11.821C74.2456 11.821 71.5286 12.79 69.7426 14.728C67.9566 16.628 67.0636 18.984 67.0636 21.796C67.0636 24.836 68.0136 27.325 69.9136 29.263C71.8516 31.163 74.7966 32.113 78.7486 32.113C81.9026 32.113 84.4106 31.6 86.2726 30.574C88.1346 29.51 89.5026 27.838 90.3766 25.558C93.4926 27.23 97.4826 29.111 102.347 31.201C100.447 35.799 97.2736 39.01 92.8276 40.834C88.3816 42.658 83.5366 43.57 78.2926 43.57ZM154.75 1.618C154.484 8.04 154.351 14.937 154.351 22.309C154.351 29.681 154.484 36.578 154.75 43H141.355V27.496H120.379V43H106.984C107.288 35.628 107.44 28.731 107.44 22.309C107.44 15.887 107.288 8.99 106.984 1.618H120.379V17.122H141.355V1.618H154.75ZM195.275 43C194.553 40.834 193.584 38.117 192.368 34.849H174.185L171.335 43H157.028L172.988 1.618H193.964L210.038 43H195.275ZM189.119 25.957C187.675 21.967 186.193 17.977 184.673 13.987L183.305 10.282C181.975 13.74 180.018 18.965 177.434 25.957H189.119ZM225.875 31.486C236.895 31.41 246.015 31.22 253.235 30.916C252.741 32.854 252.437 34.716 252.323 36.502C252.209 38.288 252.152 40.454 252.152 43H211.967C212.271 35.628 212.423 28.731 212.423 22.309C212.423 15.887 212.271 8.99 211.967 1.618H225.875V31.486ZM295.067 1.675C302.629 1.675 307.892 3.024 310.856 5.722C313.82 8.382 315.302 12.144 315.302 17.008C315.302 20.352 314.713 23.202 313.535 25.558C312.357 27.876 310.286 29.7 307.322 31.03C304.358 32.322 300.273 32.968 295.067 32.968H283.211V43H269.189C269.493 35.628 269.645 28.731 269.645 22.309C269.645 15.887 269.493 8.99 269.189 1.618H283.211V1.675H295.067ZM291.077 21.967C294.231 21.967 296.587 21.853 298.145 21.625C299.741 21.359 300.843 20.903 301.451 20.257C302.097 19.611 302.42 18.661 302.42 17.407C302.42 16.153 302.116 15.222 301.508 14.614C300.938 13.968 299.855 13.531 298.259 13.303C296.701 13.075 294.307 12.961 291.077 12.961H283.211V21.967H291.077ZM333.295 32.569C347.735 32.493 358.204 32.284 364.702 31.942C364.436 33.5 364.265 35.115 364.189 36.787C364.151 38.421 364.132 40.492 364.132 43H319.843C320.147 35.628 320.299 28.731 320.299 22.309C320.299 15.887 320.147 8.99 319.843 1.618H364.132V11.935H333.295V17.407C335.119 17.445 337.817 17.464 341.389 17.464C347.431 17.464 353.682 17.35 360.142 17.122V26.926C353.682 26.698 347.431 26.584 341.389 26.584C337.817 26.584 335.119 26.603 333.295 26.641V32.569ZM387.513 0.990997C394.657 0.990997 400.3 1.865 404.442 3.613C408.584 5.323 411.472 7.717 413.106 10.795C414.778 13.835 415.614 17.578 415.614 22.024C415.614 26.242 414.664 29.928 412.764 33.082C410.864 36.236 408.014 38.687 404.214 40.435C400.414 42.145 395.74 43 390.192 43C386.81 43 383.371 43 379.875 43C376.379 43 372.845 42.981 369.273 42.943C369.577 35.457 369.729 28.484 369.729 22.024C369.729 15.488 369.577 8.667 369.273 1.561C373.795 1.181 379.875 0.990997 387.513 0.990997ZM391.788 31.657C395.322 31.657 397.678 30.802 398.856 29.092C400.034 27.382 400.623 25.026 400.623 22.024C400.623 19.136 399.996 16.799 398.742 15.013C397.526 13.227 395.208 12.334 391.788 12.334C388.102 12.334 385.347 12.448 383.523 12.676V31.657H391.788ZM467.973 1.675C467.707 8.097 467.574 14.975 467.574 22.309C467.574 29.681 467.707 36.578 467.973 43H447.567L433.773 11.878L434.799 43H420.15C420.454 35.628 420.606 28.731 420.606 22.309C420.606 15.925 420.454 9.047 420.15 1.675H441.126L454.977 33.652L454.008 1.675H467.973ZM485.982 32.569C500.422 32.493 510.891 32.284 517.389 31.942C517.123 33.5 516.952 35.115 516.876 36.787C516.838 38.421 516.819 40.492 516.819 43H472.53C472.834 35.628 472.986 28.731 472.986 22.309C472.986 15.887 472.834 8.99 472.53 1.618H516.819V11.935H485.982V17.407C487.806 17.445 490.504 17.464 494.076 17.464C500.118 17.464 506.369 17.35 512.829 17.122V26.926C506.369 26.698 500.118 26.584 494.076 26.584C490.504 26.584 487.806 26.603 485.982 26.641V32.569ZM551.714 43C549.928 39.77 546.964 34.83 542.822 28.18L536.153 34.792V43H521.96C522.264 35.628 522.416 28.731 522.416 22.309C522.416 15.887 522.264 8.99 521.96 1.618H536.153V18.319C543.145 11.403 548.123 5.836 551.087 1.618H569.555L551.6 19.402C554.26 23.126 557.243 27.173 560.549 31.543C563.893 35.913 566.914 39.732 569.612 43H551.714ZM610.14 43C609.418 40.834 608.449 38.117 607.233 34.849H589.05L586.2 43H571.893L587.853 1.618H608.829L624.903 43H610.14ZM603.984 25.957C602.54 21.967 601.058 17.977 599.538 13.987L598.17 10.282C596.84 13.74 594.883 18.965 592.299 25.957H603.984ZM673.715 15.412C673.715 18.718 672.898 21.511 671.264 23.791C669.668 26.071 666.913 27.724 662.999 28.75C663.455 29.358 663.778 29.833 663.968 30.175L673.202 43H657.698C656.026 39.884 653.385 35.476 649.775 29.776H641.396V43H627.944C628.248 35.628 628.4 28.731 628.4 22.309C628.4 15.887 628.248 8.99 627.944 1.618H641.396V1.675H653.081C660.757 1.675 666.115 2.91 669.155 5.38C672.195 7.85 673.715 11.194 673.715 15.412ZM641.396 12.619V19.117H649.091C652.321 19.117 654.753 19.022 656.387 18.832C658.059 18.604 659.218 18.262 659.864 17.806C660.51 17.35 660.833 16.685 660.833 15.811C660.833 14.975 660.529 14.329 659.921 13.873C659.313 13.417 658.173 13.094 656.501 12.904C654.829 12.714 652.359 12.619 649.091 12.619H641.396Z" fill="#D9CD94"/>
</svg>
