<svg width="1513" height="98" viewBox="0 0 1513 98" fill="none" xmlns="http://www.w3.org/2000/svg">
<path d="M85.888 96C84.2667 91.136 82.0907 85.0347 79.36 77.696H38.528L32.128 96H0L35.84 3.072H82.944L119.04 96H85.888ZM72.064 57.728C68.8213 48.768 65.4933 39.808 62.08 30.848L59.008 22.528C56.0213 30.2933 51.6267 42.0267 45.824 57.728H72.064ZM175.815 97.28C156.53 97.28 142.322 93.184 133.191 84.992C124.06 76.8 119.495 65.1093 119.495 49.92C119.495 34.6453 124.06 22.5707 133.191 13.696C142.322 4.82133 156.53 0.383995 175.815 0.383995C202.78 0.383995 220.828 9.64266 229.959 28.16C222.279 30.8053 213.276 34.7733 202.951 40.064C200.476 35.2853 196.551 31.744 191.175 29.44C185.884 27.136 180.466 25.984 174.919 25.984C166.727 25.984 160.626 28.16 156.615 32.512C152.604 36.7787 150.599 42.0693 150.599 48.384C150.599 55.2107 152.732 60.8 156.999 65.152C161.351 69.4187 167.964 71.552 176.839 71.552C183.922 71.552 189.554 70.4 193.735 68.096C197.916 65.7067 200.988 61.952 202.951 56.832C209.948 60.5867 218.908 64.8107 229.831 69.504C225.564 79.8293 218.439 87.04 208.455 91.136C198.471 95.232 187.591 97.28 175.815 97.28ZM347.509 3.072C346.912 17.4933 346.613 32.9813 346.613 49.536C346.613 66.0907 346.912 81.5787 347.509 96H317.429V61.184H270.325V96H240.245C240.928 79.4453 241.269 63.9573 241.269 49.536C241.269 35.1147 240.928 19.6267 240.245 3.072H270.325V37.888H317.429V3.072H347.509ZM438.513 96C436.892 91.136 434.716 85.0347 431.985 77.696H391.153L384.753 96H352.625L388.465 3.072H435.569L471.665 96H438.513ZM424.689 57.728C421.446 48.768 418.118 39.808 414.705 30.848L411.633 22.528C408.646 30.2933 404.252 42.0267 398.449 57.728H424.689ZM507.227 70.144C531.974 69.9733 552.454 69.5467 568.667 68.864C567.558 73.216 566.875 77.3973 566.619 81.408C566.363 85.4187 566.235 90.2827 566.235 96H475.995C476.678 79.4453 477.019 63.9573 477.019 49.536C477.019 35.1147 476.678 19.6267 475.995 3.072H507.227V70.144ZM662.607 3.2C679.588 3.2 691.407 6.22933 698.063 12.288C704.719 18.2613 708.047 26.7093 708.047 37.632C708.047 45.1413 706.724 51.5413 704.079 56.832C701.434 62.0373 696.783 66.1333 690.127 69.12C683.471 72.0213 674.298 73.472 662.607 73.472H635.983V96H604.495C605.178 79.4453 605.519 63.9573 605.519 49.536C605.519 35.1147 605.178 19.6267 604.495 3.072H635.983V3.2H662.607ZM653.647 48.768C660.73 48.768 666.02 48.512 669.519 48C673.103 47.4027 675.578 46.3787 676.943 44.928C678.394 43.4773 679.119 41.344 679.119 38.528C679.119 35.712 678.436 33.6213 677.071 32.256C675.791 30.8053 673.359 29.824 669.775 29.312C666.276 28.8 660.9 28.544 653.647 28.544H635.983V48.768H653.647ZM748.453 72.576C780.88 72.4053 804.389 71.936 818.981 71.168C818.384 74.6667 818 78.2933 817.829 82.048C817.744 85.7173 817.701 90.368 817.701 96H718.245C718.928 79.4453 719.269 63.9573 719.269 49.536C719.269 35.1147 718.928 19.6267 718.245 3.072H817.701V26.24H748.453V38.528C752.549 38.6133 758.608 38.656 766.629 38.656C780.197 38.656 794.234 38.4 808.741 37.888V59.904C794.234 59.392 780.197 59.136 766.629 59.136C758.608 59.136 752.549 59.1787 748.453 59.264V72.576ZM870.205 1.66399C886.248 1.66399 898.92 3.62666 908.221 7.55199C917.522 11.392 924.008 16.768 927.677 23.68C931.432 30.5067 933.309 38.912 933.309 48.896C933.309 58.368 931.176 66.6453 926.909 73.728C922.642 80.8107 916.242 86.3147 907.709 90.24C899.176 94.08 888.68 96 876.221 96C868.626 96 860.904 96 853.053 96C845.202 96 837.266 95.9573 829.245 95.872C829.928 79.0613 830.269 63.4027 830.269 48.896C830.269 34.2187 829.928 18.9013 829.245 2.94399C839.4 2.09066 853.053 1.66399 870.205 1.66399ZM879.805 70.528C887.741 70.528 893.032 68.608 895.677 64.768C898.322 60.928 899.645 55.6373 899.645 48.896C899.645 42.4107 898.237 37.1627 895.421 33.152C892.69 29.1413 887.485 27.136 879.805 27.136C871.528 27.136 865.341 27.392 861.245 27.904V70.528H879.805ZM1050.89 3.2C1050.29 17.6213 1049.99 33.0667 1049.99 49.536C1049.99 66.0907 1050.29 81.5787 1050.89 96H1005.06L974.087 26.112L976.391 96H943.495C944.178 79.4453 944.519 63.9573 944.519 49.536C944.519 35.2 944.178 19.7547 943.495 3.2H990.599L1021.7 75.008L1019.53 3.2H1050.89ZM1091.33 72.576C1123.75 72.4053 1147.26 71.936 1161.86 71.168C1161.26 74.6667 1160.87 78.2933 1160.7 82.048C1160.62 85.7173 1160.58 90.368 1160.58 96H1061.12C1061.8 79.4453 1062.14 63.9573 1062.14 49.536C1062.14 35.1147 1061.8 19.6267 1061.12 3.072H1160.58V26.24H1091.33V38.528C1095.42 38.6133 1101.48 38.656 1109.5 38.656C1123.07 38.656 1137.11 38.4 1151.62 37.888V59.904C1137.11 59.392 1123.07 59.136 1109.5 59.136C1101.48 59.136 1095.42 59.1787 1091.33 59.264V72.576ZM1238.94 96C1234.93 88.7467 1228.27 77.6533 1218.97 62.72L1203.99 77.568V96H1172.12C1172.8 79.4453 1173.14 63.9573 1173.14 49.536C1173.14 35.1147 1172.8 19.6267 1172.12 3.072H1203.99V40.576C1219.69 25.0453 1230.87 12.544 1237.53 3.072H1279L1238.68 43.008C1244.65 51.3707 1251.35 60.4587 1258.78 70.272C1266.29 80.0853 1273.07 88.6613 1279.13 96H1238.94ZM1370.14 96C1368.52 91.136 1366.34 85.0347 1363.61 77.696H1322.78L1316.38 96H1284.25L1320.09 3.072H1367.19L1403.29 96H1370.14ZM1356.31 57.728C1353.07 48.768 1349.74 39.808 1346.33 30.848L1343.26 22.528C1340.27 30.2933 1335.88 42.0267 1330.07 57.728H1356.31ZM1512.9 34.048C1512.9 41.472 1511.07 47.744 1507.4 52.864C1503.82 57.984 1497.63 61.696 1488.84 64C1489.86 65.3653 1490.59 66.432 1491.02 67.2L1511.75 96H1476.94C1473.18 89.0027 1467.25 79.104 1459.14 66.304H1440.33V96H1410.12C1410.8 79.4453 1411.14 63.9573 1411.14 49.536C1411.14 35.1147 1410.8 19.6267 1410.12 3.072H1440.33V3.2H1466.57C1483.81 3.2 1495.84 5.97333 1502.66 11.52C1509.49 17.0667 1512.9 24.576 1512.9 34.048ZM1440.33 27.776V42.368H1457.61C1464.86 42.368 1470.32 42.1547 1473.99 41.728C1477.75 41.216 1480.35 40.448 1481.8 39.424C1483.25 38.4 1483.98 36.9067 1483.98 34.944C1483.98 33.0667 1483.29 31.616 1481.93 30.592C1480.56 29.568 1478 28.8427 1474.25 28.416C1470.49 27.9893 1464.95 27.776 1457.61 27.776H1440.33Z" fill="#D9CD94"/>
</svg>
