<svg width="457" height="141" viewBox="0 0 457 141" fill="none" xmlns="http://www.w3.org/2000/svg">
<path d="M42.944 48C42.1333 45.568 41.0453 42.5173 39.68 38.848H19.264L16.064 48H0L17.92 1.536H41.472L59.52 48H42.944ZM36.032 28.864C34.4107 24.384 32.7467 19.904 31.04 15.424L29.504 11.264C28.0107 15.1467 25.8133 21.0133 22.912 28.864H36.032ZM87.9075 48.64C78.2648 48.64 71.1608 46.592 66.5955 42.496C62.0302 38.4 59.7475 32.5547 59.7475 24.96C59.7475 17.3227 62.0302 11.2853 66.5955 6.848C71.1608 2.41066 78.2648 0.191998 87.9075 0.191998C101.39 0.191998 110.414 4.82133 114.98 14.08C111.14 15.4027 106.638 17.3867 101.476 20.032C100.238 17.6427 98.2755 15.872 95.5875 14.72C92.9422 13.568 90.2328 12.992 87.4595 12.992C83.3635 12.992 80.3128 14.08 78.3075 16.256C76.3022 18.3893 75.2995 21.0347 75.2995 24.192C75.2995 27.6053 76.3662 30.4 78.4995 32.576C80.6755 34.7093 83.9822 35.776 88.4195 35.776C91.9608 35.776 94.7768 35.2 96.8675 34.048C98.9582 32.8533 100.494 30.976 101.476 28.416C104.974 30.2933 109.454 32.4053 114.916 34.752C112.782 39.9147 109.22 43.52 104.228 45.568C99.2355 47.616 93.7955 48.64 87.9075 48.64ZM173.755 1.536C173.456 8.74666 173.307 16.4907 173.307 24.768C173.307 33.0453 173.456 40.7893 173.755 48H158.715V30.592H135.163V48H120.123C120.464 39.7227 120.635 31.9787 120.635 24.768C120.635 17.5573 120.464 9.81333 120.123 1.536H135.163V18.944H158.715V1.536H173.755ZM219.257 48C218.446 45.568 217.358 42.5173 215.993 38.848H195.577L192.377 48H176.312L194.233 1.536H217.785L235.833 48H219.257ZM212.345 28.864C210.723 24.384 209.059 19.904 207.353 15.424L205.817 11.264C204.323 15.1467 202.126 21.0133 199.225 28.864H212.345ZM253.614 35.072C265.987 34.9867 276.227 34.7733 284.334 34.432C283.779 36.608 283.438 38.6987 283.31 40.704C283.182 42.7093 283.118 45.1413 283.118 48H237.998C238.339 39.7227 238.51 31.9787 238.51 24.768C238.51 17.5573 238.339 9.81333 237.998 1.536H253.614V35.072ZM31.616 94.6C40.1067 94.6 46.016 96.1147 49.344 99.144C52.672 102.131 54.336 106.355 54.336 111.816C54.336 115.571 53.6747 118.771 52.352 121.416C51.0293 124.019 48.704 126.067 45.376 127.56C42.048 129.011 37.4613 129.736 31.616 129.736H18.304V141H2.56C2.90133 132.723 3.072 124.979 3.072 117.768C3.072 110.557 2.90133 102.813 2.56 94.536H18.304V94.6H31.616ZM27.136 117.384C30.6773 117.384 33.3227 117.256 35.072 117C36.864 116.701 38.1013 116.189 38.784 115.464C39.5093 114.739 39.872 113.672 39.872 112.264C39.872 110.856 39.5307 109.811 38.848 109.128C38.208 108.403 36.992 107.912 35.2 107.656C33.4507 107.4 30.7627 107.272 27.136 107.272H18.304V117.384H27.136ZM74.539 129.288C90.7523 129.203 102.507 128.968 109.803 128.584C109.504 130.333 109.312 132.147 109.227 134.024C109.184 135.859 109.163 138.184 109.163 141H59.435C59.7763 132.723 59.947 124.979 59.947 117.768C59.947 110.557 59.7763 102.813 59.435 94.536H109.163V106.12H74.539V112.264C76.587 112.307 79.6163 112.328 83.627 112.328C90.411 112.328 97.4297 112.2 104.683 111.944V122.952C97.4297 122.696 90.411 122.568 83.627 122.568C79.6163 122.568 76.587 122.589 74.539 122.632V129.288ZM135.415 93.832C143.436 93.832 149.772 94.8133 154.423 96.776C159.074 98.696 162.316 101.384 164.151 104.84C166.028 108.253 166.967 112.456 166.967 117.448C166.967 122.184 165.9 126.323 163.767 129.864C161.634 133.405 158.434 136.157 154.167 138.12C149.9 140.04 144.652 141 138.423 141C134.626 141 130.764 141 126.839 141C122.914 141 118.946 140.979 114.935 140.936C115.276 132.531 115.447 124.701 115.447 117.448C115.447 110.109 115.276 102.451 114.935 94.472C120.012 94.0453 126.839 93.832 135.415 93.832ZM140.215 128.264C144.183 128.264 146.828 127.304 148.151 125.384C149.474 123.464 150.135 120.819 150.135 117.448C150.135 114.205 149.431 111.581 148.023 109.576C146.658 107.571 144.055 106.568 140.215 106.568C136.076 106.568 132.983 106.696 130.935 106.952V128.264H140.215ZM225.756 94.6C225.457 101.811 225.308 109.533 225.308 117.768C225.308 126.045 225.457 133.789 225.756 141H202.844L187.356 106.056L188.508 141H172.06C172.401 132.723 172.572 124.979 172.572 117.768C172.572 110.6 172.401 102.877 172.06 94.6H195.612L211.164 130.504L210.076 94.6H225.756ZM245.977 129.288C262.19 129.203 273.945 128.968 281.241 128.584C280.942 130.333 280.75 132.147 280.665 134.024C280.622 135.859 280.601 138.184 280.601 141H230.873C231.214 132.723 231.385 124.979 231.385 117.768C231.385 110.557 231.214 102.813 230.873 94.536H280.601V106.12H245.977V112.264C248.025 112.307 251.054 112.328 255.065 112.328C261.849 112.328 268.867 112.2 276.121 111.944V122.952C268.867 122.696 261.849 122.568 255.065 122.568C251.054 122.568 248.025 122.589 245.977 122.632V129.288ZM319.781 141C317.775 137.373 314.447 131.827 309.797 124.36L302.309 131.784V141H286.373C286.714 132.723 286.885 124.979 286.885 117.768C286.885 110.557 286.714 102.813 286.373 94.536H302.309V113.288C310.159 105.523 315.749 99.272 319.076 94.536H339.813L319.653 114.504C322.639 118.685 325.989 123.229 329.701 128.136C333.455 133.043 336.847 137.331 339.877 141H319.781ZM385.382 141C384.571 138.568 383.483 135.517 382.118 131.848H361.702L358.502 141H342.438L360.358 94.536H383.91L401.958 141H385.382ZM378.47 121.864C376.848 117.384 375.184 112.904 373.478 108.424L371.942 104.264C370.448 108.147 368.251 114.013 365.35 121.864H378.47ZM456.765 110.024C456.765 113.736 455.847 116.872 454.013 119.432C452.221 121.992 449.127 123.848 444.733 125C445.245 125.683 445.607 126.216 445.821 126.6L456.189 141H438.781C436.903 137.501 433.938 132.552 429.885 126.152H420.477V141H405.373C405.714 132.723 405.885 124.979 405.885 117.768C405.885 110.557 405.714 102.813 405.373 94.536H420.477V94.6H433.597C442.215 94.6 448.231 95.9867 451.645 98.76C455.058 101.533 456.765 105.288 456.765 110.024ZM420.477 106.888V114.184H429.117C432.743 114.184 435.474 114.077 437.309 113.864C439.186 113.608 440.487 113.224 441.213 112.712C441.938 112.2 442.301 111.453 442.301 110.472C442.301 109.533 441.959 108.808 441.277 108.296C440.594 107.784 439.314 107.421 437.437 107.208C435.559 106.995 432.786 106.888 429.117 106.888H420.477Z" fill="#D9CD94"/>
</svg>
